<?xml version="1.0" encoding="iso-8859-1"?>
<!-- Generator: Adobe Illustrator 19.0.0, SVG Export Plug-In . SVG Version: 6.00 Build 0)  -->
<svg version="1.1" id="Layer_1" xmlns="http://www.w3.org/2000/svg" xmlns:xlink="http://www.w3.org/1999/xlink" x="0px" y="0px"
	 viewBox="0 0 292.554 292.554" style="enable-background:new 0 0 292.554 292.554;" xml:space="preserve">
<g>
	<g>
		<path style="fill:#4EFFBB;" d="M284.934,137.639H268.82c1.509-5.659,2.341-11.511,2.341-17.512
			c0-18.454-7.282-35.814-20.568-48.872s-30.908-20.229-49.663-20.229c-17.926,0-34.796,6.529-47.854,18.492
			c-13.058-11.963-29.928-18.492-47.854-18.492c-18.755,0-36.381,7.171-49.663,20.229s-20.568,30.418-20.568,48.872
			c0,8.718,1.661,17.132,4.754,25.021H28.462c-4.226,0-7.623,3.359-7.623,7.472c0,4.15,3.397,7.51,7.623,7.51h19.549
			c2.265,3.132,4.716,6.115,7.51,8.87l91.665,91.14c1.433,1.395,3.359,2.189,5.397,2.227c2.037,0,3.963-0.791,5.397-2.227
			L250.59,169c4.982-4.906,9.132-10.417,12.378-16.379h21.963c4.188,0,7.623-3.359,7.623-7.51
			C292.557,140.999,289.122,137.639,284.934,137.639z"/>
		<g id="XMLID_19_">
			<g>
				<path style="fill:#302C58;" d="M142.16,71.515l-19.134,80.91l-21.058-75.213c-0.905-3.208-3.85-5.434-7.209-5.51
					c-3.246-0.114-6.415,2.075-7.396,5.245l-15.133,47.36H35.625c-10.793-20.416-7.51-46.193,9.888-63.287
					c10.717-10.53,24.794-15.813,38.87-15.813c14.077,0,28.153,5.283,38.908,15.813c1.094,1.094,2.113,2.265,3.132,3.435
					c2.869,3.359,8.756,3.359,11.622,0c0.49-0.604,1.019-1.17,1.547-1.737l9.999,2.98C146.124,65.701,142.954,68.118,142.16,71.515z
					"/>
				<path style="fill:#302C58;" d="M218.958,61.023c15.323,15.057,19.625,36.833,13.096,55.778h-41.173l-6.339-30.114
					c-0.718-3.246-3.511-5.659-6.905-5.925c-3.359-0.266-6.529,1.699-7.699,4.83l-7.851,20.605l-4.944-34.04
					c-0.528-3.584-3.546-6.301-7.247-6.453c-0.114,0-0.228,0-0.301,0l-9.999-2.98c0.528-0.604,1.057-1.132,1.585-1.699
					C162.652,39.927,197.524,39.927,218.958,61.023z"/>
				<path style="fill:#302C58;" d="M184.691,131.782h39.285c-1.509,1.999-3.132,3.964-5.02,5.773l-87.173,85.819L47.25,139.291
					h30.567c3.359,0,6.301-2.113,7.285-5.245l9.056-28.305l22.114,79.138c0.905,3.246,3.926,5.51,7.358,5.51
					c0.038,0,0.114,0,0.152,0c3.473-0.076,6.491-2.452,7.285-5.811l16.718-70.721l3.397,23.512c0.49,3.397,3.283,6.039,6.754,6.377
					c3.435,0.376,6.716-1.585,7.924-4.792l9.094-23.851l2.265,10.717C177.975,129.292,181.069,131.782,184.691,131.782z"/>
				<path style="fill:#222051;" d="M264.092,116.8c4.188,0,7.623,3.359,7.623,7.472c0,4.15-3.435,7.51-7.623,7.51h-21.963
					c-3.245,5.963-7.396,11.473-12.378,16.379l-92.611,91.137c-1.433,1.433-3.359,2.227-5.397,2.227
					c-2.037-0.038-3.964-0.832-5.397-2.227l-91.665-91.137c-2.793-2.755-5.245-5.735-7.51-8.87H7.623
					c-4.226,0-7.623-3.356-7.623-7.51c0-4.112,3.397-7.472,7.623-7.472h11.283c-3.094-7.886-4.754-16.303-4.754-25.021
					c0-18.454,7.282-35.814,20.568-48.872c13.283-13.058,30.908-20.229,49.663-20.229c17.926,0,34.796,6.529,47.854,18.492
					c13.058-11.963,29.928-18.492,47.854-18.492c18.755,0,36.381,7.171,49.663,20.229s20.568,30.418,20.568,48.872
					c0,6.001-0.832,11.85-2.341,17.512C247.981,116.8,264.092,116.8,264.092,116.8z M232.054,116.8
					c6.529-18.945,2.227-40.721-13.096-55.778c-21.434-21.096-56.306-21.096-77.778,0c-0.528,0.566-1.057,1.094-1.585,1.699
					c-0.528,0.566-1.057,1.132-1.547,1.737c-2.869,3.359-8.756,3.359-11.622,0c-1.019-1.17-2.037-2.341-3.132-3.435
					C112.539,50.493,98.462,45.21,84.386,45.21s-28.153,5.283-38.87,15.813c-17.398,17.094-20.681,42.872-9.888,63.287h36.605
					l15.133-47.36c0.981-3.17,4.15-5.359,7.396-5.245c3.359,0.076,6.301,2.303,7.209,5.51l21.058,75.213l19.134-80.91
					c0.794-3.397,3.964-5.811,7.434-5.811c0.076,0,0.19,0,0.301,0c3.698,0.152,6.719,2.869,7.247,6.453l4.944,34.04l7.851-20.605
					c1.17-3.132,4.34-5.096,7.699-4.83c3.397,0.263,6.19,2.679,6.905,5.925l6.339,30.114h41.17V116.8H232.054z M223.978,131.782
					H184.69c-3.622,0-6.719-2.49-7.472-5.963l-2.265-10.717l-9.094,23.851c-1.208,3.208-4.492,5.169-7.924,4.792
					c-3.473-0.339-6.263-2.98-6.754-6.377l-3.397-23.512l-16.718,70.721c-0.794,3.359-3.812,5.735-7.285,5.811
					c-0.038,0-0.114,0-0.152,0c-3.435,0-6.453-2.265-7.358-5.51l-22.114-79.136l-9.056,28.305c-0.981,3.132-3.926,5.245-7.285,5.245
					H47.25l84.535,84.083l87.176-85.816C220.846,135.745,222.469,133.784,223.978,131.782z"/>
			</g>
		</g>
	</g>
</g>
<g>
</g>
<g>
</g>
<g>
</g>
<g>
</g>
<g>
</g>
<g>
</g>
<g>
</g>
<g>
</g>
<g>
</g>
<g>
</g>
<g>
</g>
<g>
</g>
<g>
</g>
<g>
</g>
<g>
</g>
</svg>
